<?xml version="1.0" standalone="no"?><!DOCTYPE svg PUBLIC "-//W3C//DTD SVG 1.1//EN" "http://www.w3.org/Graphics/SVG/1.1/DTD/svg11.dtd"><svg t="1667566304699" class="icon" viewBox="0 0 1024 1024" version="1.1" xmlns="http://www.w3.org/2000/svg" p-id="1165" xmlns:xlink="http://www.w3.org/1999/xlink" width="200" height="200"><path d="M980.6336 188.3136c-22.9888-13.4656-41.8816-9.1648-56.7296 0.6144-81.7152 36.9152-156.4672 17.8176-192.9216 3.584 2.9696-56.832-8.9088-92.2624-35.5328-105.3184-43.008-21.1456-88.9344 27.8016-110.6432 59.0848-32.256-4.8128-56.7296-5.7856-61.6448-5.9392-5.632-0.4608-38.0416-2.7136-79.2576 1.1264-17.8688-23.9104-63.232-75.8272-107.008-54.272-25.344 12.4416-37.376 45.5168-35.7888 98.3552-2.4576 1.6384-4.8128 3.328-7.168 5.0176-32.2048 18.176-99.84 42.0864-190.976-1.5872C88.064 179.2 69.1712 174.7968 46.08 188.2624c-11.7248 6.8608-18.9952 18.2272-20.48 32.0512-3.2768 30.0544 21.6064 67.4816 47.616 91.2384 24.2176 22.1184 84.3776 54.9376 138.8544 54.9376 2.4064 0 4.7616-0.1536 7.168-0.256-0.256 2.8672-0.512 5.632-0.768 8.1408-0.4096 4.6592-0.768 8.5504-1.1264 11.4688-2.6624 22.272-29.1328 98.048-42.8032 118.528-18.7904 28.16-27.7504 109.2096 23.4496 217.856 2.2016 121.344 143.872 219.5456 317.696 219.5456 171.3152 0 311.296-95.3344 317.4912-214.1696 57.3952-155.5456 35.7888-198.8096 28.6208-213.1456-13.056-26.112-39.5776-82.3296-46.592-107.9808-2.56-9.3696-3.9424-21.3504-5.5808-35.2768-0.2048-1.5872-0.3584-3.2256-0.5632-4.864 1.7408 0.0512 3.5328 0.2048 5.3248 0.2048 54.5792 0 114.8928-32.9728 138.9568-54.9376 26.0608-23.7568 50.8928-61.184 47.7184-91.2384-1.3824-13.824-8.6528-25.1904-20.4288-32.0512zM677.376 123.9552c5.7344 2.816 12.6464 18.3296 13.056 49.92-17.92-7.4752-38.0928-13.824-60.3648-19.0464 16.7424-19.2512 37.5296-35.6864 47.3088-30.8736z m-322.5088 0c1.0752-0.512 2.3552-0.768 3.7376-0.768 8.8064 0 23.5008 10.0864 37.7856 25.1904-1.7408 0.3584-3.4304 0.768-5.1712 1.1264-1.8432 0.4096-3.7376 0.8192-5.632 1.2288-2.9184 0.6656-5.7856 1.3824-8.6528 2.1504-0.512 0.1536-1.024 0.256-1.536 0.4096-11.7248 3.1232-22.8352 6.656-33.2288 10.8032 1.6384-26.88 8.3968-37.9904 12.6976-40.1408zM100.864 281.2928c-25.1392-22.9376-37.3248-51.0976-34.2016-57.6512 2.6624-1.536 4.9152-2.7136 7.424-2.7136 5.3248 0 11.8784 5.0688 25.8048 22.3232 0.1536 0.1536 0.256 0.3584 0.4096 0.512 3.2768 3.84 6.7584 7.5776 10.2912 11.2128 1.0752 1.0752 2.0992 2.1504 3.1744 3.2768 2.6624 2.7136 5.376 5.3248 8.0896 7.936l3.1744 3.0208c3.6864 3.3792 7.424 6.7584 11.1616 9.984 0.512 0.4608 1.024 0.8704 1.536 1.28 3.328 2.816 6.7072 5.5808 10.0864 8.2944 1.2288 0.9728 2.5088 1.9456 3.7376 2.9184 2.8672 2.2016 5.6832 4.4032 8.4992 6.5024 1.1264 0.8192 2.2016 1.6896 3.328 2.5088 3.7888 2.7648 7.5264 5.4272 11.2128 7.9872 0.8704 0.6144 1.6896 1.1264 2.5088 1.7408 2.9696 2.048 5.8368 3.9936 8.704 5.888 1.28 0.8192 2.5088 1.6384 3.7376 2.4576 2.56 1.6384 5.0688 3.2768 7.5264 4.8128 0.7168 0.4608 1.4848 0.9728 2.2016 1.3824-37.7856-4.4032-80.64-27.4432-98.4064-43.6736zM215.552 286.72c-0.9216-0.5632-1.8432-1.1776-2.7648-1.792-1.7408-1.1264-3.4304-2.2528-5.2224-3.3792-1.024-0.6656-2.0992-1.3824-3.1232-2.0992-1.6896-1.1264-3.3792-2.2528-5.0688-3.4304-1.1264-0.768-2.2528-1.5872-3.3792-2.3552-1.6384-1.1776-3.328-2.3552-5.0176-3.5328l-3.5328-2.6112c-1.6384-1.2288-3.2768-2.4064-4.9664-3.6864-1.1776-0.9216-2.4064-1.8432-3.584-2.7648-1.6384-1.28-3.328-2.56-4.9664-3.8912-1.1776-0.9216-2.3552-1.8944-3.5328-2.8672-0.9216-0.768-1.8432-1.536-2.816-2.304 29.1328 4.4032 55.1936 3.1744 77.6704-0.9728-0.6144 1.3312-1.1264 2.7648-1.6896 4.096-0.256 0.6144-0.512 1.1776-0.768 1.792-1.1776 2.816-2.2528 5.632-3.328 8.6016-0.3072 0.8192-0.6144 1.6896-0.9216 2.5088-0.9216 2.56-1.792 5.1712-2.6112 7.7824-0.4608 1.3824-0.8704 2.7648-1.28 4.096-0.6144 2.0992-1.2288 4.1984-1.8432 6.3488-0.6144 2.2016-1.1776 4.352-1.7408 6.5536l-0.768 2.9184c-2.304-1.3824-4.7104-2.816-7.168-4.352-0.512-0.3072-1.0752-0.6656-1.5872-0.9728-1.9456-1.1264-3.9424-2.3552-5.9904-3.6864z m576.9728 434.3808l-0.0512 1.8944v0.0512c-3.0208 98.3552-125.952 177.7664-276.736 177.7664-152.6784 0-276.8384-81.408-276.8384-181.504 0-0.7168 0.0512-1.3824 0.1024-2.0992v-0.1024c1.8432-98.8672 126.0032-179.2512 276.7872-179.2512 152.6784 0 276.8384 81.408 276.8384 181.504 0 0.5632-0.0512 1.1776-0.1024 1.7408z m32.8192-188.2624c9.6768 19.3536 6.3488 59.648-8.8576 114.432-0.4096-0.8704-0.9216-1.7408-1.3824-2.6112-0.5632-1.0752-1.1264-2.2016-1.6896-3.2768-1.1776-2.2016-2.4064-4.4032-3.6864-6.5536-0.512-0.9216-1.024-1.792-1.5872-2.7136-1.8432-3.0208-3.7888-6.0416-5.7856-8.96-0.256-0.4096-0.5632-0.768-0.8192-1.1264-1.792-2.56-3.6864-5.12-5.5808-7.6288-0.7168-0.9216-1.4336-1.8432-2.2016-2.7648-1.5872-1.9968-3.2256-3.9936-4.9152-5.9392-0.8192-0.9216-1.5872-1.8944-2.4576-2.816-1.8432-2.0992-3.7376-4.1472-5.6832-6.1952a200.27392 200.27392 0 0 0-10.1376-10.0864c-0.4608-0.4608-0.9728-0.8704-1.4336-1.28-2.3552-2.1504-4.7616-4.3008-7.2192-6.4-0.9216-0.8192-1.8944-1.5872-2.8672-2.4064-2.0992-1.7408-4.2496-3.4816-6.4512-5.2224-1.024-0.8192-2.048-1.5872-3.072-2.3552-2.4576-1.8432-4.9664-3.6864-7.4752-5.5296-0.7168-0.512-1.4336-1.0752-2.2016-1.5872-3.328-2.304-6.7072-4.5568-10.1376-6.7584-0.7168-0.4608-1.4848-0.9216-2.2016-1.3312-2.7648-1.7408-5.5296-3.4304-8.3968-5.0688-1.1776-0.6656-2.304-1.3312-3.4816-1.9968-2.56-1.4336-5.12-2.8672-7.7312-4.2496-1.1776-0.6144-2.3552-1.28-3.584-1.8944-3.0208-1.5872-6.0928-3.072-9.216-4.608-0.768-0.3584-1.4848-0.7168-2.2528-1.0752-3.8912-1.8432-7.8336-3.584-11.8272-5.3248-0.9728-0.4096-1.9968-0.8192-2.9696-1.2288-3.072-1.28-6.144-2.5088-9.2672-3.7376-1.3824-0.512-2.7648-1.024-4.096-1.536-2.9184-1.0752-5.8368-2.1504-8.7552-3.1744-1.3312-0.4608-2.6624-0.9216-4.0448-1.3824-3.584-1.1776-7.2192-2.3552-10.9056-3.4304l-1.9968-0.6144c-4.352-1.28-8.7552-2.5088-13.2096-3.6352-1.1776-0.3072-2.4064-0.6144-3.6352-0.8704-3.2768-0.8192-6.6048-1.5872-9.9328-2.3552-1.536-0.3584-3.072-0.6656-4.608-1.024-3.1744-0.6656-6.4-1.3312-9.6256-1.8944-1.4848-0.256-2.9184-0.5632-4.4032-0.8192-4.1984-0.768-8.448-1.4336-12.6976-2.048-0.4608-0.0512-0.9216-0.1536-1.3312-0.2048-4.7104-0.6656-9.472-1.28-14.2848-1.792-1.4336-0.1536-2.8672-0.3072-4.3008-0.4096-3.4304-0.3584-6.8608-0.6656-10.3424-0.9216-1.6896-0.1536-3.3792-0.256-5.0688-0.3584-3.4304-0.2048-6.8608-0.4096-10.3424-0.5632-1.536-0.0512-3.072-0.1536-4.608-0.2048a416.27136 416.27136 0 0 0-30.9248 0.0512l-2.9696 0.1536c-4.4032 0.2048-8.8064 0.4096-13.2096 0.7168l-1.5872 0.1536c-70.0928 5.12-135.424 26.1632-186.5728 60.5184-38.144 25.6-65.8944 56.7808-81.8176 91.0848-20.0704-65.4336-13.3632-110.0288-4.9664-122.6752 17.3568-26.0608 45.9776-108.1856 49.3568-136.3968 0.4096-3.2768 0.768-7.5264 1.2288-12.6464 0.8192-9.1136 1.9456-21.0432 3.7376-34.304 0.5632-4.1472 1.2288-8.4992 1.9456-12.9024v-0.0512c6.6048-39.5776 17.6128-69.3248 32.6656-88.3712 1.3824-1.6384 2.7648-3.2256 4.2496-4.7616 4.352-4.5568 9.1648-8.9088 14.4896-13.0048 0.1024-0.0512 0.1536-0.1536 0.2048-0.2048 4.6592-3.5328 9.5744-6.8096 14.6944-9.8304 0.3072-0.1536 0.6656-0.3072 0.9728-0.4608 26.7264-15.4112 61.7984-25.7536 104.192-30.72 0.1024 0 0.2048-0.0512 0.3072-0.0512 21.1968-2.4576 40.6528-3.1232 55.4496-3.1232 16.8448 0 27.648 0.8704 28.0576 0.8704 0.4096 0.0512 0.8192 0.0512 1.2288 0.0512 16.2304 0.4096 41.0112 2.5088 68.352 7.168 0.512 0.1024 0.9728 0.256 1.4848 0.3584 16.0256 2.7648 31.1808 6.0928 45.2096 9.984l2.7136 0.768c3.9424 1.1264 7.8336 2.304 11.6224 3.4816 1.2288 0.4096 2.4064 0.8192 3.584 1.1776 2.56 0.8704 5.12 1.7408 7.6288 2.6624l4.608 1.6896c3.072 1.1776 6.0416 2.3552 8.96 3.584 1.6896 0.7168 3.3792 1.4848 5.0176 2.2016 1.5872 0.7168 3.1744 1.4336 4.7104 2.1504 1.6896 0.8192 3.3792 1.5872 5.0688 2.4576 2.4064 1.2288 4.7616 2.4576 7.0144 3.7376 1.0752 0.6144 2.0992 1.2288 3.1744 1.8432 2.048 1.1776 4.0448 2.4064 5.9904 3.6864 1.792 1.1776 3.6352 2.3552 5.3248 3.584 0.9728 0.6656 1.8432 1.3824 2.816 2.0992 1.4336 1.0752 2.816 2.1504 4.1472 3.2256 0.8704 0.7168 1.6896 1.4336 2.5088 2.1504 1.3312 1.1264 2.6112 2.304 3.7888 3.4816 0.7168 0.7168 1.4336 1.3824 2.1504 2.0992 1.2288 1.2288 2.3552 2.5088 3.4816 3.7888 0.6144 0.6656 1.2288 1.3824 1.792 2.048 1.1264 1.3824 2.1504 2.7648 3.1744 4.1472 0.4608 0.6656 0.9728 1.28 1.4336 1.9456 1.024 1.536 1.9968 3.1232 2.8672 4.7104 0.3072 0.5632 0.6656 1.0752 0.9728 1.6384 1.1776 2.1504 2.2016 4.352 3.1232 6.5536 1.9456 4.8128 3.7888 9.6768 5.4784 14.4896 0.0512 0.2048 0.1536 0.4096 0.2048 0.5632a332.3392 332.3392 0 0 1 12.4928 46.1312c0.8704 4.4032 1.6384 8.704 2.304 12.8512 1.8432 11.52 3.1232 22.1696 4.2496 31.9488 1.8432 15.5136 3.3792 28.928 6.7584 41.2672 9.9328 35.4816 45.6704 107.5712 49.8176 115.7632z m-5.4272-251.8528c-1.2288 0.8192-2.4064 1.536-3.584 2.3552-1.536 1.024-3.1232 2.048-4.608 3.0208-1.28 0.8192-2.4576 1.536-3.6864 2.304-1.3824 0.8704-2.816 1.792-4.1472 2.6112-1.4848 0.9216-2.8672 1.7408-4.2496 2.56-1.024 0.6144-2.0992 1.28-3.1232 1.8944-0.1024 0.0512-0.1536 0.1024-0.256 0.1536-0.2048-0.6656-0.4096-1.28-0.5632-1.9456l-1.9968-6.912c-0.3584-1.2288-0.768-2.5088-1.1776-3.7376-0.6144-1.9456-1.2288-3.8912-1.8944-5.8368-0.4096-1.28-0.8704-2.56-1.28-3.8912-0.7168-2.048-1.4336-4.096-2.2016-6.144-0.4096-1.1264-0.8192-2.304-1.2288-3.4304-1.0752-2.8672-2.2016-5.7344-3.3792-8.6528a114.81088 114.81088 0 0 0-3.3792-7.7312c24.6784 3.8912 53.1968 5.2736 84.0192 1.0752-5.7344 4.864-11.5712 9.5744-17.408 13.9776-0.6656 0.512-1.3824 1.024-2.048 1.536-2.2528 1.6896-4.4544 3.328-6.656 4.9664-0.9728 0.7168-1.8944 1.3312-2.8672 2.048-1.9456 1.3824-3.84 2.7648-5.7344 4.096l-3.328 2.2528c-1.8432 1.1264-3.5328 2.304-5.2224 3.4304z m105.8816 0.3072c-17.664 16.128-60.5184 39.168-98.5088 43.6224 0.512-0.3584 1.1264-0.7168 1.6384-1.0752 2.7136-1.6896 5.4784-3.4816 8.3456-5.3248 1.1264-0.7168 2.2528-1.4848 3.3792-2.2016 2.9184-1.9456 5.888-3.8912 8.8576-5.9904l2.4576-1.6896c3.7376-2.6112 7.5264-5.3248 11.3664-8.0896l2.9184-2.1504c2.9696-2.2016 5.9392-4.4544 8.9088-6.8096 1.1776-0.9216 2.4064-1.8432 3.584-2.816 3.328-2.6624 6.656-5.376 9.984-8.192a411.0336 411.0336 0 0 0 12.9024-11.4176l3.072-2.9184c2.7648-2.6112 5.5296-5.3248 8.192-8.0384 1.0752-1.0752 2.0992-2.1504 3.1744-3.2256 3.5328-3.6864 6.9632-7.424 10.2912-11.2128 0.1536-0.1536 0.256-0.3584 0.4096-0.512 13.9264-17.2544 20.48-22.3232 25.8048-22.3232 2.56 0 4.8128 1.1776 7.424 2.7136l0.2048 0.0512c2.9184 6.5024-9.2672 34.6624-34.4064 57.6z" fill="#262738" p-id="1166"></path><path d="M687.4112 617.2672a22.62016 22.62016 0 0 0-17.4592 3.328c-5.12 3.4816-8.6528 9.0112-9.6256 15.1552-10.0352 63.0784-52.0704 88.7808-69.6832 96.9216a22.54848 22.54848 0 0 0-12.6976 24.6272 22.65088 22.65088 0 0 0 20.8384 18.3808c4.5056 0.256 9.0112 0.4096 13.4656 0.4096 34.56 0 68.1984-8.0384 93.696-22.6304 30.2592-16.896 45.2096-43.008 41.0624-71.5264-4.4032-29.7472-30.5152-58.112-59.5968-64.6656z m-1.6896 100.5056c-6.7584 3.8912-14.4896 7.168-22.784 9.7792 12.8512-15.2576 24.6784-35.0208 32.2048-60.3648 5.6832 5.632 10.1888 13.0048 11.3152 20.5824 1.5872 11.3152-5.3248 21.4016-20.736 30.0032zM436.5824 732.7232c-17.6128-8.1408-59.648-33.8432-69.6832-96.9216-0.9728-6.144-4.5056-11.6736-9.6256-15.1552-5.12-3.4816-11.4688-4.7104-17.5104-3.328-29.0304 6.5024-55.1936 34.9184-59.4944 64.6144-4.1472 28.5184 10.8032 54.6304 40.9088 71.424 25.6512 14.6944 59.2896 22.7328 93.8496 22.7328 4.4544 0 8.96-0.1536 13.4656-0.4096 10.3424-0.6144 18.8928-8.192 20.8384-18.3808a22.5792 22.5792 0 0 0-12.7488-24.576z m-95.2832-15.0528c-15.2576-8.5504-22.1696-18.5856-20.5312-29.9008 1.1264-7.5776 5.632-14.8992 11.3152-20.5824 7.5264 25.344 19.3536 45.1072 32.1536 60.3136-8.3456-2.6112-16.0768-5.888-22.9376-9.8304zM720.9472 252.672c-3.5328-1.9968-35.6864-19.2-68.5568-9.728-17.92 5.2224-32.6144 17.5616-42.4448 35.7888a20.50048 20.50048 0 0 0 17.9712 30.208c7.2704 0 14.336-3.8912 18.0224-10.752 4.608-8.4992 10.3424-13.6704 17.6128-15.8208 13.9264-4.1472 31.6416 2.9696 37.3248 6.0928 9.8816 5.4784 22.272 1.9456 27.8016-7.8848 5.632-9.8816 2.0992-22.3232-7.7312-27.904zM325.5296 288.4096c0.2048-0.1024 20.5312-10.9056 37.12-6.0928 7.3728 2.1504 13.1584 7.3216 17.7664 15.872 3.6864 6.8608 10.752 10.752 18.0224 10.752 3.2768 0 6.6048-0.8192 9.728-2.4576a20.50048 20.50048 0 0 0 8.2944-27.7504c-9.8304-18.2272-24.4736-30.5664-42.4448-35.7888-32.8192-9.5232-65.024 7.7312-68.5568 9.728a20.48512 20.48512 0 0 0-7.8336 27.904 20.51072 20.51072 0 0 0 27.904 7.8336zM369.7664 360.2944c-37.632 0-68.2496 30.6176-68.2496 68.2496s30.6176 68.2496 68.2496 68.2496 68.2496-30.6176 68.2496-68.2496-30.6176-68.2496-68.2496-68.2496z m0 95.488c-15.0528 0-27.2896-12.2368-27.2896-27.2896s12.2368-27.2896 27.2896-27.2896 27.2896 12.2368 27.2896 27.2896-12.2368 27.2896-27.2896 27.2896zM655.8208 356.5056c-38.656 0-70.144 31.4368-70.144 70.144s31.4368 70.144 70.144 70.144c38.656 0 70.144-31.4368 70.144-70.144s-31.488-70.144-70.144-70.144z m0 99.2768c-16.0768 0-29.184-13.1072-29.184-29.184s13.1072-29.184 29.184-29.184 29.184 13.056 29.184 29.184-13.1072 29.184-29.184 29.184z" fill="#262738" p-id="1167"></path></svg>